<?xml version="1.0" standalone="no"?>
<!DOCTYPE svg PUBLIC "-//W3C//DTD SVG 20010904//EN"
 "http://www.w3.org/TR/2001/REC-SVG-20010904/DTD/svg10.dtd">
<svg version="1.0" xmlns="http://www.w3.org/2000/svg"
 width="512.000000pt" height="512.000000pt" viewBox="0 0 512.000000 512.000000"
 preserveAspectRatio="xMidYMid meet">

<g transform="translate(0.000000,512.000000) scale(0.100000,-0.100000)"
fill="#139ed6" stroke="none">
<path d="M2467 5046 c-91 -34 -163 -109 -187 -196 -6 -22 -10 -466 -10 -1192
l0 -1158 290 0 290 0 0 1160 c0 1131 0 1161 -20 1212 -42 113 -132 179 -254
185 -45 2 -85 -2 -109 -11z"/>
<path d="M1945 2381 c-89 -22 -145 -99 -145 -198 l0 -33 760 0 760 0 0 33 c0
79 -40 150 -104 185 -28 15 -85 17 -636 19 -333 1 -618 -2 -635 -6z"/>
<path d="M1769 2026 c-209 -37 -383 -212 -422 -423 l-6 -33 1219 0 1220 0 -7
33 c-40 218 -221 393 -440 426 -103 16 -1475 13 -1564 -3z m1005 -182 c18 -18
20 -47 6 -75 -10 -18 -23 -19 -220 -19 -197 0 -210 1 -220 19 -14 28 -12 57 6
75 23 24 405 24 428 0z"/>
<path d="M1340 1281 c0 -271 -26 -457 -92 -656 -41 -123 -124 -292 -197 -400
-64 -96 -72 -122 -43 -148 16 -15 46 -17 204 -17 l186 0 50 67 c217 295 331
600 348 928 7 135 18 165 63 165 62 0 71 -46 50 -238 -32 -293 -131 -572 -286
-805 -37 -56 -69 -105 -71 -109 -2 -5 98 -8 223 -8 l226 0 59 123 c132 277
210 616 210 917 0 71 3 90 18 103 34 31 85 16 96 -27 11 -45 -13 -351 -39
-491 -29 -158 -104 -394 -169 -530 l-45 -95 429 0 429 0 -45 95 c-25 52 -67
161 -94 242 -75 231 -107 417 -112 661 -3 122 -1 135 16 148 27 19 60 18 79
-4 13 -14 17 -39 17 -104 0 -299 78 -639 210 -915 l59 -123 226 0 c125 0 225
3 223 8 -2 4 -34 53 -71 109 -155 233 -254 512 -286 805 -22 194 -12 238 51
238 42 0 51 -23 59 -150 22 -349 133 -647 351 -942 l50 -68 187 0 c169 0 190
2 204 18 27 29 21 50 -37 136 -138 206 -229 432 -272 681 -8 44 -17 187 -21
318 l-6 237 -1218 0 -1219 0 0 -169z"/>
</g>
</svg>
